<svg width="226" height="19" viewBox="0 0 226 19" fill="none" xmlns="http://www.w3.org/2000/svg">
<path d="M8.62119 18.192C6.97319 18.192 5.53319 17.84 4.30119 17.136C3.08519 16.416 2.14919 15.4 1.49319 14.088C0.837188 12.776 0.509188 11.224 0.509188 9.432C0.509188 7.656 0.837188 6.112 1.49319 4.8C2.14919 3.488 3.08519 2.48 4.30119 1.776C5.53319 1.072 6.97319 0.719999 8.62119 0.719999C9.78919 0.719999 10.8692 0.903999 11.8612 1.272C12.8692 1.624 13.7172 2.144 14.4052 2.832L13.5412 4.656C12.7412 4 11.9492 3.528 11.1652 3.24C10.3972 2.936 9.55719 2.784 8.64519 2.784C6.86919 2.784 5.49319 3.36 4.51719 4.512C3.55719 5.664 3.07719 7.304 3.07719 9.432C3.07719 11.576 3.55719 13.232 4.51719 14.4C5.49319 15.552 6.86919 16.128 8.64519 16.128C9.55719 16.128 10.3972 15.984 11.1652 15.696C11.9492 15.392 12.7412 14.912 13.5412 14.256L14.4052 16.08C13.7172 16.768 12.8692 17.296 11.8612 17.664C10.8692 18.016 9.78919 18.192 8.62119 18.192ZM18.0494 5.904H20.4494V18H18.0494V5.904ZM20.6414 0.623999V3.168H17.8334V0.623999H20.6414ZM31.1846 5.616C34.0806 5.616 35.5286 7.232 35.5286 10.464V18H33.1046V10.608C33.1046 9.552 32.8966 8.784 32.4806 8.304C32.0806 7.824 31.4326 7.584 30.5366 7.584C29.5126 7.584 28.6886 7.904 28.0646 8.544C27.4566 9.184 27.1526 10.04 27.1526 11.112V18H24.7526V9.312C24.7526 8.048 24.6886 6.912 24.5606 5.904H26.8166L27.0326 7.992C27.4166 7.224 27.9686 6.64 28.6886 6.24C29.4246 5.824 30.2566 5.616 31.1846 5.616ZM50.0491 12H41.4091C41.4891 14.832 42.7771 16.248 45.2731 16.248C46.6651 16.248 47.9371 15.792 49.0891 14.88L49.8331 16.608C49.2891 17.088 48.5931 17.472 47.7451 17.76C46.9131 18.032 46.0731 18.168 45.2251 18.168C43.2891 18.168 41.7691 17.616 40.6651 16.512C39.5611 15.392 39.0091 13.864 39.0091 11.928C39.0091 10.696 39.2491 9.6 39.7291 8.64C40.2251 7.68 40.9131 6.936 41.7931 6.408C42.6731 5.88 43.6731 5.616 44.7931 5.616C46.4251 5.616 47.7051 6.144 48.6331 7.2C49.5771 8.256 50.0491 9.72 50.0491 11.592V12ZM44.8411 7.416C43.9291 7.416 43.1851 7.688 42.6091 8.232C42.0331 8.776 41.6651 9.552 41.5051 10.56H47.9131C47.8171 9.536 47.5051 8.76 46.9771 8.232C46.4491 7.688 45.7371 7.416 44.8411 7.416ZM61.1407 18.192C59.5247 18.192 58.1167 17.84 56.9167 17.136C55.7327 16.416 54.8127 15.4 54.1567 14.088C53.5167 12.776 53.1967 11.232 53.1967 9.456C53.1967 7.664 53.5167 6.112 54.1567 4.8C54.7967 3.488 55.7167 2.48 56.9167 1.776C58.1167 1.072 59.5247 0.719999 61.1407 0.719999C62.7727 0.719999 64.1807 1.072 65.3647 1.776C66.5647 2.48 67.4847 3.488 68.1247 4.8C68.7647 6.112 69.0847 7.656 69.0847 9.432C69.0847 11.224 68.7647 12.776 68.1247 14.088C67.4847 15.4 66.5647 16.416 65.3647 17.136C64.1647 17.84 62.7567 18.192 61.1407 18.192ZM61.1407 16.176C62.8527 16.176 64.1807 15.592 65.1247 14.424C66.0847 13.256 66.5647 11.592 66.5647 9.432C66.5647 7.288 66.0847 5.64 65.1247 4.488C64.1807 3.32 62.8527 2.736 61.1407 2.736C59.4287 2.736 58.1007 3.32 57.1567 4.488C56.2127 5.64 55.7407 7.288 55.7407 9.432C55.7407 11.592 56.2127 13.256 57.1567 14.424C58.1167 15.592 59.4447 16.176 61.1407 16.176ZM79.4658 5.616C82.3618 5.616 83.8098 7.232 83.8098 10.464V18H81.3858V10.608C81.3858 9.552 81.1778 8.784 80.7618 8.304C80.3618 7.824 79.7138 7.584 78.8178 7.584C77.7938 7.584 76.9698 7.904 76.3458 8.544C75.7378 9.184 75.4338 10.04 75.4338 11.112V18H73.0338V9.312C73.0338 8.048 72.9698 6.912 72.8418 5.904H75.0978L75.3138 7.992C75.6978 7.224 76.2498 6.64 76.9698 6.24C77.7058 5.824 78.5378 5.616 79.4658 5.616ZM98.3304 12H89.6904C89.7704 14.832 91.0584 16.248 93.5544 16.248C94.9464 16.248 96.2184 15.792 97.3704 14.88L98.1144 16.608C97.5704 17.088 96.8744 17.472 96.0264 17.76C95.1944 18.032 94.3544 18.168 93.5064 18.168C91.5704 18.168 90.0504 17.616 88.9464 16.512C87.8424 15.392 87.2904 13.864 87.2904 11.928C87.2904 10.696 87.5304 9.6 88.0104 8.64C88.5064 7.68 89.1944 6.936 90.0744 6.408C90.9544 5.88 91.9544 5.616 93.0744 5.616C94.7064 5.616 95.9864 6.144 96.9144 7.2C97.8584 8.256 98.3304 9.72 98.3304 11.592V12ZM93.1224 7.416C92.2104 7.416 91.4664 7.688 90.8904 8.232C90.3144 8.776 89.9464 9.552 89.7864 10.56H96.1944C96.0984 9.536 95.7864 8.76 95.2584 8.232C94.7304 7.688 94.0184 7.416 93.1224 7.416ZM113.166 15.96V18H101.958V16.152L107.838 9.696C108.59 8.864 109.134 8.112 109.47 7.44C109.822 6.752 109.998 6.072 109.998 5.4C109.998 4.536 109.75 3.88 109.254 3.432C108.758 2.968 108.038 2.736 107.094 2.736C105.51 2.736 103.926 3.36 102.342 4.608L101.454 2.784C102.126 2.16 102.982 1.664 104.022 1.296C105.062 0.911999 106.11 0.719999 107.166 0.719999C108.798 0.719999 110.086 1.128 111.03 1.944C111.99 2.76 112.47 3.864 112.47 5.256C112.47 6.248 112.254 7.192 111.822 8.088C111.39 8.968 110.67 9.952 109.662 11.04L105.102 15.96H113.166ZM128.115 15.96V18H118.131V15.96H121.875V3.864L118.395 6.024V3.744L122.931 0.912H124.371V15.96H128.115ZM147.02 18.192C145.372 18.192 143.932 17.84 142.7 17.136C141.484 16.416 140.548 15.4 139.892 14.088C139.236 12.776 138.908 11.224 138.908 9.432C138.908 7.656 139.236 6.112 139.892 4.8C140.548 3.488 141.484 2.48 142.7 1.776C143.932 1.072 145.372 0.719999 147.02 0.719999C148.188 0.719999 149.268 0.903999 150.26 1.272C151.268 1.624 152.116 2.144 152.804 2.832L151.94 4.656C151.14 4 150.348 3.528 149.564 3.24C148.796 2.936 147.956 2.784 147.044 2.784C145.268 2.784 143.892 3.36 142.916 4.512C141.956 5.664 141.476 7.304 141.476 9.432C141.476 11.576 141.956 13.232 142.916 14.4C143.892 15.552 145.268 16.128 147.044 16.128C147.956 16.128 148.796 15.984 149.564 15.696C150.348 15.392 151.14 14.912 151.94 14.256L152.804 16.08C152.116 16.768 151.268 17.296 150.26 17.664C149.268 18.016 148.188 18.192 147.02 18.192ZM156.448 5.904H158.848V18H156.448V5.904ZM159.04 0.623999V3.168H156.232V0.623999H159.04ZM169.583 5.616C172.479 5.616 173.927 7.232 173.927 10.464V18H171.503V10.608C171.503 9.552 171.295 8.784 170.879 8.304C170.479 7.824 169.831 7.584 168.935 7.584C167.911 7.584 167.087 7.904 166.463 8.544C165.855 9.184 165.551 10.04 165.551 11.112V18H163.151V9.312C163.151 8.048 163.087 6.912 162.959 5.904H165.215L165.431 7.992C165.815 7.224 166.367 6.64 167.087 6.24C167.823 5.824 168.655 5.616 169.583 5.616ZM188.448 12H179.808C179.888 14.832 181.176 16.248 183.672 16.248C185.064 16.248 186.336 15.792 187.488 14.88L188.232 16.608C187.688 17.088 186.992 17.472 186.144 17.76C185.312 18.032 184.472 18.168 183.624 18.168C181.688 18.168 180.168 17.616 179.064 16.512C177.96 15.392 177.408 13.864 177.408 11.928C177.408 10.696 177.648 9.6 178.128 8.64C178.624 7.68 179.312 6.936 180.192 6.408C181.072 5.88 182.072 5.616 183.192 5.616C184.824 5.616 186.104 6.144 187.032 7.2C187.976 8.256 188.448 9.72 188.448 11.592V12ZM183.24 7.416C182.328 7.416 181.584 7.688 181.008 8.232C180.432 8.776 180.064 9.552 179.904 10.56H186.312C186.216 9.536 185.904 8.76 185.376 8.232C184.848 7.688 184.136 7.416 183.24 7.416ZM205.779 5.616C208.467 5.616 209.811 7.232 209.811 10.464V18H207.387V10.584C207.387 9.544 207.203 8.784 206.835 8.304C206.483 7.824 205.907 7.584 205.107 7.584C204.179 7.584 203.443 7.904 202.899 8.544C202.371 9.184 202.107 10.056 202.107 11.16V18H199.683V10.584C199.683 9.544 199.499 8.784 199.131 8.304C198.779 7.824 198.203 7.584 197.403 7.584C196.475 7.584 195.739 7.904 195.195 8.544C194.651 9.184 194.379 10.056 194.379 11.16V18H191.979V9.312C191.979 8.048 191.915 6.912 191.787 5.904H194.043L194.259 7.92C194.611 7.184 195.115 6.616 195.771 6.216C196.427 5.816 197.195 5.616 198.075 5.616C199.947 5.616 201.171 6.392 201.747 7.944C202.115 7.224 202.651 6.656 203.355 6.24C204.075 5.824 204.883 5.616 205.779 5.616ZM225.098 5.904V18H222.698V15.936C222.346 16.656 221.818 17.208 221.114 17.592C220.426 17.976 219.618 18.168 218.69 18.168C217.618 18.168 216.674 17.912 215.858 17.4C215.058 16.888 214.434 16.168 213.986 15.24C213.538 14.296 213.314 13.2 213.314 11.952C213.314 10.704 213.538 9.6 213.986 8.64C214.45 7.68 215.09 6.936 215.906 6.408C216.722 5.88 217.65 5.616 218.69 5.616C219.618 5.616 220.426 5.816 221.114 6.216C221.802 6.6 222.33 7.152 222.698 7.872V5.904H225.098ZM219.266 16.248C220.354 16.248 221.194 15.872 221.786 15.12C222.394 14.352 222.698 13.28 222.698 11.904C222.698 10.512 222.394 9.44 221.786 8.688C221.194 7.936 220.346 7.56 219.242 7.56C218.154 7.56 217.298 7.952 216.674 8.736C216.066 9.504 215.762 10.576 215.762 11.952C215.762 13.312 216.066 14.368 216.674 15.12C217.298 15.872 218.162 16.248 219.266 16.248Z" fill="#14142B"/>
</svg>
