<svg width="85" height="33" viewBox="0 0 85 33" fill="none" xmlns="http://www.w3.org/2000/svg">
<path d="M9.18466 27.0636H5.52104V12.1588H0V8.4294H14.6929V12.1588H9.18466V27.0636ZM20.3933 9.365C20.3933 9.6942 20.3293 10.0017 20.2011 10.2876C20.0816 10.5735 19.9151 10.8247 19.7016 11.0413C19.488 11.2492 19.2362 11.4181 18.9458 11.5481C18.6639 11.6694 18.3608 11.73 18.0362 11.73C17.7118 11.73 17.4043 11.6694 17.114 11.5481C16.8321 11.4181 16.5845 11.2492 16.371 11.0413C16.166 10.8247 15.9995 10.5735 15.8714 10.2876C15.7518 10.0017 15.6921 9.6942 15.6921 9.365C15.6921 9.04447 15.7518 8.74126 15.8714 8.45539C15.9995 8.16084 16.166 7.90961 16.371 7.70169C16.5845 7.48512 16.8321 7.3162 17.114 7.19491C17.4043 7.06497 17.7118 7 18.0362 7C18.3608 7 18.6639 7.06497 18.9458 7.19491C19.2362 7.3162 19.488 7.48512 19.7016 7.70169C19.9151 7.90961 20.0816 8.16084 20.2011 8.45539C20.3293 8.74126 20.3933 9.04447 20.3933 9.365ZM19.7913 27.0636H16.2685V13.1464H19.7913V27.0636ZM34.4585 15.9143L31.8964 18.5262C31.7684 18.1623 31.5934 17.8375 31.3712 17.5516C31.1493 17.2571 30.8974 17.0102 30.6155 16.8109C30.3423 16.6117 30.0434 16.4601 29.7188 16.3561C29.3944 16.2521 29.0612 16.2001 28.7196 16.2001C28.2414 16.2001 27.7888 16.2998 27.3619 16.499C26.9434 16.6983 26.5761 16.9798 26.2602 17.3437C25.9527 17.6989 25.7093 18.1234 25.53 18.6172C25.3507 19.111 25.261 19.6567 25.261 20.2544C25.261 20.7395 25.3507 21.1944 25.53 21.619C25.7093 22.0434 25.9527 22.4159 26.2602 22.7364C26.5761 23.057 26.9434 23.3082 27.3619 23.49C27.7888 23.6721 28.2414 23.7629 28.7196 23.7629C29.0612 23.7629 29.39 23.7154 29.706 23.6201C30.0221 23.5248 30.3166 23.3905 30.59 23.2172C30.8717 23.0353 31.1194 22.8187 31.3329 22.5675C31.5549 22.3075 31.7343 22.0217 31.8709 21.7098L34.4328 24.3218C34.1084 24.7896 33.7325 25.2098 33.3056 25.5822C32.8871 25.9548 32.4302 26.2709 31.9349 26.5308C31.4482 26.7908 30.9315 26.9857 30.385 27.1156C29.847 27.2542 29.2919 27.3235 28.7196 27.3235C27.7547 27.3235 26.8452 27.1415 25.9912 26.7778C25.1458 26.4052 24.4028 25.8985 23.7623 25.2573C23.1303 24.6163 22.6308 23.8669 22.2635 23.0092C21.8964 22.1516 21.7127 21.2334 21.7127 20.2544C21.7127 19.1889 21.8964 18.1927 22.2635 17.2657C22.6308 16.3388 23.1303 15.5331 23.7623 14.8487C24.4028 14.1557 25.1458 13.6099 25.9912 13.2114C26.8452 12.8129 27.7547 12.6137 28.7196 12.6137C29.2919 12.6137 29.8512 12.6873 30.3978 12.8346C30.9529 12.9818 31.4781 13.1984 31.9734 13.4843C32.4773 13.7615 32.9383 14.1037 33.3568 14.5109C33.7838 14.918 34.151 15.3858 34.4585 15.9143ZM39.6977 27.0636H36.175V7.61073H39.6977V19.8776L44.9112 13.1724H48.9337L44.3862 18.968L48.9337 27.0636H44.9112L42.1316 22.0088L39.6977 25.2834V27.0636ZM54.4419 9.365C54.4419 9.6942 54.3777 10.0017 54.2497 10.2876C54.1301 10.5735 53.9636 10.8247 53.7502 11.0413C53.5366 11.2492 53.2846 11.4181 52.9943 11.5481C52.7125 11.6694 52.4094 11.73 52.0848 11.73C51.7604 11.73 51.4529 11.6694 51.1626 11.5481C50.8807 11.4181 50.633 11.2492 50.4196 11.0413C50.2146 10.8247 50.0481 10.5735 49.9199 10.2876C49.8005 10.0017 49.7407 9.6942 49.7407 9.365C49.7407 9.04447 49.8005 8.74126 49.9199 8.45539C50.0481 8.16084 50.2146 7.90961 50.4196 7.70169C50.633 7.48512 50.8807 7.3162 51.1626 7.19491C51.4529 7.06497 51.7604 7 52.0848 7C52.4094 7 52.7125 7.06497 52.9943 7.19491C53.2846 7.3162 53.5366 7.48512 53.7502 7.70169C53.9636 7.90961 54.1301 8.16084 54.2497 8.45539C54.3777 8.74126 54.4419 9.04447 54.4419 9.365ZM53.8397 27.0636H50.3171V13.1464H53.8397V27.0636ZM63.3959 27.0636C62.5505 27.0636 61.7563 26.9034 61.0133 26.5828C60.2704 26.2537 59.6171 25.8075 59.0534 25.2444C58.4983 24.6725 58.0584 24.0099 57.734 23.2562C57.418 22.5025 57.26 21.6969 57.26 20.8392V16.7069H55.5564V13.1724H57.26V7.61073H60.7443V13.1724H66.0476V16.7069H60.7443V20.8392C60.7443 21.2118 60.8125 21.5626 60.9493 21.8918C61.0859 22.2123 61.2737 22.4938 61.5128 22.7364C61.7521 22.9791 62.0338 23.1739 62.3583 23.3211C62.6829 23.4599 63.0287 23.5291 63.3959 23.5291H66.0476V27.0636H63.3959ZM78.7293 27.0636H67.2902L73.0674 16.7069H67.2902V13.1724H78.7293L72.9521 23.5291H78.7293V27.0636Z" fill="#5F2EEA"/>
<path d="M83.5581 15.4791C83.5553 15.4776 83.5524 15.4767 83.5496 15.4753L82.4056 14.8048C82.3344 14.8872 82.2371 14.9419 82.1305 14.9597C82.0239 14.9775 81.9146 14.9573 81.8211 14.9025C81.7275 14.8477 81.6554 14.7616 81.6173 14.659C81.5794 14.5564 81.5774 14.4436 81.6122 14.3398L80.4602 13.6647C80.4292 13.6467 80.3925 13.6418 80.358 13.6511C80.3236 13.6605 80.294 13.6834 80.2762 13.7147L76.8561 19.7243L76.8559 19.7246C76.847 19.7401 76.8412 19.7573 76.8389 19.775C76.8367 19.7929 76.8379 19.8108 76.8424 19.8282C76.847 19.8456 76.8549 19.8618 76.8657 19.8761C76.8764 19.8903 76.8898 19.9022 76.9052 19.9113L78.0576 20.5855C78.129 20.5033 78.226 20.4487 78.3326 20.4307C78.4391 20.413 78.5484 20.4332 78.642 20.4879C78.7355 20.5427 78.8074 20.6286 78.8455 20.7309C78.8838 20.8333 78.8858 20.946 78.8515 21.0498L79.989 21.7153C79.9936 21.7188 79.9979 21.7225 80.003 21.7256C80.0184 21.7346 80.0352 21.7403 80.0528 21.7428C80.0703 21.7451 80.0882 21.7438 80.1051 21.7392C80.1223 21.7346 80.1382 21.7266 80.1524 21.7156C80.1664 21.7048 80.1781 21.6911 80.187 21.6755V21.6757L83.6073 15.6658C83.6162 15.6502 83.622 15.6331 83.6243 15.6153C83.6265 15.5975 83.6255 15.5794 83.6208 15.5621C83.6162 15.5448 83.6083 15.5285 83.5977 15.5143C83.5868 15.5 83.5734 15.4881 83.5581 15.4791ZM82.5773 15.9457L79.911 20.6305C79.9021 20.6461 79.8904 20.6598 79.8764 20.6706C79.8624 20.6816 79.8463 20.6896 79.8293 20.6942C79.8122 20.6988 79.7944 20.7001 79.7769 20.6978C79.7594 20.6955 79.7424 20.6896 79.727 20.6806L77.9354 19.6311C77.92 19.6221 77.9065 19.6102 77.8958 19.596C77.885 19.5818 77.8771 19.5655 77.8726 19.5483C77.868 19.5309 77.8668 19.5128 77.8691 19.495C77.8715 19.4773 77.8771 19.4601 77.8861 19.4446L80.5524 14.7597C80.5702 14.7284 80.5996 14.7055 80.634 14.6961C80.6685 14.6868 80.7052 14.6917 80.7362 14.7098L82.5282 15.7593C82.5434 15.7682 82.5569 15.7801 82.5675 15.7944C82.5784 15.8086 82.5862 15.8248 82.5908 15.8421C82.5953 15.8594 82.5966 15.8775 82.5943 15.8952C82.5918 15.913 82.5862 15.9301 82.5773 15.9457Z" fill="#5F2EEA"/>
<path d="M81.1411 17.5699L80.5735 17.4628L80.4938 16.9124C80.4925 16.9043 80.4889 16.8967 80.4833 16.8908C80.4777 16.8849 80.4703 16.8809 80.4625 16.8794C80.4544 16.8778 80.4462 16.8788 80.4389 16.8822C80.4315 16.8856 80.4254 16.8913 80.4212 16.8984L80.1461 17.382L79.5925 17.2776C79.5847 17.2761 79.5764 17.2772 79.5691 17.2806C79.5618 17.284 79.5556 17.2896 79.5516 17.2967C79.5476 17.3038 79.5458 17.312 79.5465 17.3201C79.5472 17.3283 79.5504 17.336 79.5556 17.3423L79.9217 17.7764L79.6462 18.2599C79.6422 18.2671 79.6405 18.2753 79.6413 18.2835C79.642 18.2918 79.6454 18.2996 79.6506 18.3058C79.6558 18.312 79.663 18.3163 79.6709 18.3182C79.6788 18.3202 79.687 18.3197 79.6945 18.3166L80.2041 18.1115L80.5795 18.5567C80.5847 18.5627 80.5917 18.5672 80.5996 18.5691C80.6073 18.5711 80.6155 18.5705 80.623 18.5677C80.6305 18.5649 80.6368 18.5597 80.6414 18.553C80.6459 18.5462 80.6484 18.5382 80.6482 18.5301L80.6384 17.9332L81.153 17.6433C81.1599 17.6393 81.1657 17.6332 81.1692 17.6259C81.1727 17.6185 81.1739 17.6103 81.1727 17.6022C81.1713 17.5942 81.1675 17.5868 81.1619 17.581C81.1563 17.5753 81.1489 17.5714 81.1411 17.5699Z" fill="#5F2EEA"/>
</svg>
